<svg width="100" height="101" viewBox="0 0 100 101" fill="none" xmlns="http://www.w3.org/2000/svg">
<path d="M70.8333 58.8333V88M29.1667 58.8333V88M70.8333 13V25.5M29.1667 13V25.5M10.4167 27.5833L41.6667 58.8333M33.3333 25.5L66.6667 58.8333M58.3333 25.5L89.5833 56.75M87.5 25.5H12.5C11.3949 25.5 10.3351 25.939 9.55373 26.7204C8.77233 27.5018 8.33334 28.5616 8.33334 29.6667V54.6667C8.33334 55.7717 8.77233 56.8315 9.55373 57.6129C10.3351 58.3943 11.3949 58.8333 12.5 58.8333H87.5C88.6051 58.8333 89.6649 58.3943 90.4463 57.6129C91.2277 56.8315 91.6667 55.7717 91.6667 54.6667V29.6667C91.6667 28.5616 91.2277 27.5018 90.4463 26.7204C89.6649 25.939 88.6051 25.5 87.5 25.5Z" stroke="white" stroke-width="5" stroke-linecap="round" stroke-linejoin="round"/>
</svg>
