<svg width="35" height="36" viewBox="0 0 35 36" fill="none" xmlns="http://www.w3.org/2000/svg">
<path d="M17.5 3.78339C15.5849 3.78339 13.6885 4.1606 11.9192 4.89348C10.1499 5.62636 8.5422 6.70056 7.18802 8.05475C4.45311 10.7897 2.91666 14.499 2.91666 18.3667C2.91666 24.8126 7.10207 30.2813 12.8917 32.2209C13.6208 32.3376 13.8542 31.8855 13.8542 31.4917V29.0271C9.81457 29.9021 8.95416 27.073 8.95416 27.073C8.28332 25.3813 7.33541 24.9292 7.33541 24.9292C6.00832 24.0251 7.43749 24.0542 7.43749 24.0542C8.89582 24.1563 9.66874 25.5563 9.66874 25.5563C10.9375 27.773 13.0812 27.1167 13.9125 26.7667C14.0437 25.8188 14.4229 25.1771 14.8312 24.8126C11.5937 24.448 8.19582 23.1938 8.19582 17.6376C8.19582 16.0188 8.74999 14.7209 9.69791 13.6855C9.55207 13.3209 9.04166 11.8042 9.84374 9.83547C9.84374 9.83547 11.0687 9.44172 13.8542 11.323C15.0062 11.0021 16.2604 10.8417 17.5 10.8417C18.7396 10.8417 19.9937 11.0021 21.1458 11.323C23.9312 9.44172 25.1562 9.83547 25.1562 9.83547C25.9583 11.8042 25.4479 13.3209 25.3021 13.6855C26.25 14.7209 26.8042 16.0188 26.8042 17.6376C26.8042 23.2084 23.3917 24.4334 20.1396 24.798C20.6646 25.2501 21.1458 26.1396 21.1458 27.4959V31.4917C21.1458 31.8855 21.3792 32.3521 22.1229 32.2209C27.9125 30.2667 32.0833 24.8126 32.0833 18.3667C32.0833 16.4516 31.7061 14.5553 30.9732 12.7859C30.2404 11.0166 29.1662 9.40893 27.812 8.05475C26.4578 6.70056 24.8501 5.62636 23.0808 4.89348C21.3115 4.1606 19.4151 3.78339 17.5 3.78339Z" fill="white"/>
</svg>
