<svg width="35" height="36" viewBox="0 0 35 36" fill="none" xmlns="http://www.w3.org/2000/svg">
<path d="M11.375 3.78339H23.625C28.2917 3.78339 32.0833 7.57505 32.0833 12.2417V24.4917C32.0833 26.735 31.1922 28.8864 29.6059 30.4727C28.0197 32.0589 25.8683 32.9501 23.625 32.9501H11.375C6.70832 32.9501 2.91666 29.1584 2.91666 24.4917V12.2417C2.91666 9.99843 3.8078 7.84702 5.39404 6.26077C6.98029 4.67453 9.1317 3.78339 11.375 3.78339ZM11.0833 6.70005C9.69094 6.70005 8.35558 7.25318 7.37101 8.23774C6.38645 9.22231 5.83332 10.5577 5.83332 11.9501V24.7834C5.83332 27.6855 8.18124 30.0334 11.0833 30.0334H23.9167C25.309 30.0334 26.6444 29.4803 27.629 28.4957C28.6135 27.5111 29.1667 26.1758 29.1667 24.7834V11.9501C29.1667 9.04797 26.8187 6.70005 23.9167 6.70005H11.0833ZM25.1562 8.88755C25.6397 8.88755 26.1034 9.07961 26.4452 9.42147C26.7871 9.76334 26.9792 10.227 26.9792 10.7105C26.9792 11.1939 26.7871 11.6576 26.4452 11.9995C26.1034 12.3413 25.6397 12.5334 25.1562 12.5334C24.6728 12.5334 24.2091 12.3413 23.8672 11.9995C23.5254 11.6576 23.3333 11.1939 23.3333 10.7105C23.3333 10.227 23.5254 9.76334 23.8672 9.42147C24.2091 9.07961 24.6728 8.88755 25.1562 8.88755ZM17.5 11.0751C19.4339 11.0751 21.2885 11.8433 22.656 13.2107C24.0234 14.5782 24.7917 16.4328 24.7917 18.3667C24.7917 20.3006 24.0234 22.1553 22.656 23.5227C21.2885 24.8902 19.4339 25.6584 17.5 25.6584C15.5661 25.6584 13.7115 24.8902 12.344 23.5227C10.9766 22.1553 10.2083 20.3006 10.2083 18.3667C10.2083 16.4328 10.9766 14.5782 12.344 13.2107C13.7115 11.8433 15.5661 11.0751 17.5 11.0751ZM17.5 13.9917C16.3397 13.9917 15.2269 14.4527 14.4064 15.2731C13.5859 16.0936 13.125 17.2064 13.125 18.3667C13.125 19.527 13.5859 20.6398 14.4064 21.4603C15.2269 22.2808 16.3397 22.7417 17.5 22.7417C18.6603 22.7417 19.7731 22.2808 20.5936 21.4603C21.4141 20.6398 21.875 19.527 21.875 18.3667C21.875 17.2064 21.4141 16.0936 20.5936 15.2731C19.7731 14.4527 18.6603 13.9917 17.5 13.9917Z" fill="white"/>
</svg>
