<svg width="35" height="36" viewBox="0 0 35 36" fill="none" xmlns="http://www.w3.org/2000/svg">
<path d="M27.7083 5.2417C28.4819 5.2417 29.2237 5.54899 29.7707 6.09597C30.3177 6.64295 30.625 7.38482 30.625 8.15837V28.575C30.625 29.3486 30.3177 30.0904 29.7707 30.6374C29.2237 31.1844 28.4819 31.4917 27.7083 31.4917H7.29167C6.51812 31.4917 5.77625 31.1844 5.22927 30.6374C4.68229 30.0904 4.375 29.3486 4.375 28.575V8.15837C4.375 7.38482 4.68229 6.64295 5.22927 6.09597C5.77625 5.54899 6.51812 5.2417 7.29167 5.2417H27.7083ZM26.9792 27.8459V20.1167C26.9792 18.8558 26.4783 17.6466 25.5867 16.755C24.6951 15.8634 23.4859 15.3625 22.225 15.3625C20.9854 15.3625 19.5417 16.1209 18.8417 17.2584V15.6396H14.7729V27.8459H18.8417V20.6563C18.8417 19.5334 19.7458 18.6146 20.8688 18.6146C21.4102 18.6146 21.9295 18.8297 22.3124 19.2126C22.6953 19.5955 22.9104 20.1148 22.9104 20.6563V27.8459H26.9792ZM10.0333 13.35C10.6831 13.35 11.3063 13.0919 11.7657 12.6324C12.2252 12.173 12.4833 11.5498 12.4833 10.9C12.4833 9.54378 11.3896 8.43545 10.0333 8.43545C9.37969 8.43545 8.75281 8.69511 8.29061 9.15731C7.82841 9.61951 7.56875 10.2464 7.56875 10.9C7.56875 12.2563 8.67708 13.35 10.0333 13.35ZM12.0604 27.8459V15.6396H8.02083V27.8459H12.0604Z" fill="white"/>
</svg>
