<svg width="35" height="36" viewBox="0 0 35 36" fill="none" xmlns="http://www.w3.org/2000/svg">
<path d="M24.2083 9.3542C23.2115 8.21615 22.6621 6.75462 22.6625 5.2417H18.1563V23.325C18.1215 24.3036 17.7084 25.2305 17.0038 25.9106C16.2993 26.5906 15.3584 26.9707 14.3792 26.9709C12.3083 26.9709 10.5875 25.2792 10.5875 23.1792C10.5875 20.6709 13.0083 18.7896 15.5021 19.5625V14.9542C10.4708 14.2834 6.06668 18.1917 6.06668 23.1792C6.06668 28.0354 10.0917 31.4917 14.3646 31.4917C18.9438 31.4917 22.6625 27.773 22.6625 23.1792V14.0063C24.4898 15.3186 26.6837 16.0226 28.9333 16.0188V11.5125C28.9333 11.5125 26.1917 11.6438 24.2083 9.3542Z" fill="white"/>
</svg>
